<svg width="96" height="96" viewBox="0 0 96 96" xmlns="http://www.w3.org/2000/svg" aria-label="DN42" role="img">
  <defs>
    <linearGradient id="base" x1="0.33333" y1="1" x2="2.66667" y2="-0.03704">
      <stop offset="0" stop-color="#16329f"/>
      <stop offset="1" stop-color="#2b62dd"/>
    </linearGradient>
    <radialGradient id="ng" cx="0.14844" cy="0.29376" r="0.95885" spreadMethod="pad"
      gradientTransform="rotate(-7.5,0.1484375,0.29376) translate(0,0.004896) scale(1,0.98333)">
      <stop offset="0" stop-color="#16329f"/>
      <stop offset="1" stop-color="#759ff9"/>
    </radialGradient>
    <radialGradient id="arc" cx="0.13672" cy="0.53204" r="1.3674" spreadMethod="pad"
      gradientTransform="rotate(-21,0.13672,0.53204) translate(0.043294,0) scale(0.68333,1)">
      <stop offset="0" stop-color="#16329f"/>
      <stop offset="1" stop-color="#15409b"/>
    </radialGradient>
  </defs>
  <rect x="2" y="2" width="92" height="92" rx="22" fill="#ffffff"/>
  <circle cx="72.94152" cy="33.57269" r="2.5" fill="#1e3a8a"/>
  <circle cx="18.37788" cy="70.21966" r="3.07143" fill="#2f6be0"/>
  <path fill="url(#ng)" d="m19.80952,29.14286c0,0 -0.19047,20.19047 0,25.33333c0.19048,5.14286 1.71429,8.19048 4,10.47619c2.28572,2.28572 7.80953,6.09524 7.80953,6.09524c0,0 0,-20.19048 0,-20.19048c0,0 39.61905,29.90476 39.61904,29.90476c0.00001,0 0.96794,-3.51409 1.52381,-5.5238c0.55588,-2.00972 0.38096,-3.78232 -0.57142,-4.57143c-0.95238,-0.78912 -52.38096,-41.52381 -52.38096,-41.52381z"/>
  <path fill="url(#base)" d="m51.61912,30.3305c0,-0.19048 0.19048,19.42857 0.19048,19.2381c0,-0.19048 12.95238,8.95238 12.95238,8.95238c0,0 0.4244,-12.74018 0.23393,-15.23809c-0.19048,-2.49792 -0.27233,-3.70342 -3.7009,-6.56057c-3.42857,-2.85714 -9.67589,-6.20134 -9.67589,-6.39182z"/>
  <path fill="#2f6be0" d="m29.60531,29.33333c2.21117,-0.92427 9.00719,-7.12991 20.07407,-6.22222c10.46987,0.60918 16.25097,5.29132 19.11111,7.18519c0.12383,0.00332 1.7037,-1.25926 1.7037,-1.25926c-3.8806,-3.68159 -9.99337,-6.68546 -15.20619,-7.53013c-5.21282,-0.84467 -13.0702,-0.68657 -17.01271,1.73687c-4.83803,2.47319 -6.9508,4.2775 -8.66998,6.08955z"/>
  <path fill="url(#arc)" d="m76.62065,37.06654c2.33421,3.44828 3.71352,9.38992 3.55437,15.75597c-0.15915,6.36605 -4.13746,13.27358 -5.09284,14.85411c-0.48891,-0.46028 -1.11112,-0.90959 -1.69761,-1.27321c1.86249,-3.51231 2.91778,-6.01573 3.71353,-9.30486c1.20391,-3.58067 1.04332,-6.3627 0.58356,-10.80124c-0.45977,-4.43855 -2.17507,-7.32095 -2.49337,-8.01061c0.7427,-0.37135 1.00795,-0.95491 1.43236,-1.22016z"/>
  <path fill="url(#base)" d="m22.98143,73.75066c1.00796,0.58355 6.9496,5.51724 13.74005,7.0557c6.79045,1.53846 10.93983,0.97594 13.687,0.5305c2.74718,-0.44544 7.79841,-2.38727 9.81432,-3.60743c0.4244,0.37135 0.84494,0.88036 1.59151,1.32626c-3.97646,2.02025 -7.85146,3.91042 -13.81414,4.30806c-5.96268,0.39765 -10.7185,-0.0167 -17.141,-2.58369c-4.03183,-1.75066 -8.72656,-5.1196 -9.25706,-5.49095c0.47745,-0.5305 0.90186,-1.06101 1.37931,-1.53846z"/>
</svg>
